<?xml version="1.0" encoding="UTF-8" standalone="no"?>
<svg
   xmlns:dc="http://purl.org/dc/elements/1.1/"
   xmlns:cc="http://creativecommons.org/ns#"
   xmlns:rdf="http://www.w3.org/1999/02/22-rdf-syntax-ns#"
   xmlns:svg="http://www.w3.org/2000/svg"
   xmlns="http://www.w3.org/2000/svg"
   width="100%"
   height="100%"
   viewBox="0 0 64 64"
   version="1.1"
   xml:space="preserve"
   style="fill-rule:evenodd;clip-rule:evenodd;stroke-linecap:round;stroke-linejoin:round;stroke-miterlimit:2;"
   id="svg13">
  <metadata
   id="metadata19">
    <rdf:RDF>
      <cc:Work
   rdf:about="">
        <dc:format>image/svg+xml</dc:format>

        <dc:type
   rdf:resource="http://purl.org/dc/dcmitype/StillImage" />

      </cc:Work>

    </rdf:RDF>

  </metadata>

  <defs
   id="defs17" />

  
  <path
   d="M35,32l8.224,0c3.388,0 6.638,-1.346 9.034,-3.742c2.396,-2.396 3.742,-5.646 3.742,-9.034c0,-0.001 0,-0.001 0,-0.002c0,-0.855 -0.339,-1.674 -0.944,-2.278c-0.604,-0.605 -1.423,-0.944 -2.278,-0.944c-8.739,0 -32.817,0 -41.556,0c-0.855,0 -1.674,0.339 -2.278,0.944c-0.605,0.604 -0.944,1.423 -0.944,2.278c0,0.001 0,0.001 0,0.002c0,3.388 1.346,6.638 3.742,9.034c2.396,2.396 5.646,3.742 9.034,3.742c4.391,0 8.224,0 8.224,0"
   style="fill:none;stroke:#222a33;stroke-width:2px;"
   id="path3" />

  <path
   d="M9,25l0,21.915c0,1.084 0.43,2.123 1.196,2.889c0.766,0.766 1.805,1.196 2.889,1.196c4.163,0 37.83,0 37.83,0c1.084,0 2.123,-0.43 2.889,-1.196c0.766,-0.766 1.196,-1.805 1.196,-2.889c0,-7.32 0,-21.915 0,-21.915"
   style="fill:none;stroke:#222a33;stroke-width:2px;"
   id="path5" />

  <path
   d="M44,16l0,-4.021c0,-1.093 -0.886,-1.979 -1.979,-1.979c-4.514,0 -15.528,0 -20.042,0c-1.093,0 -1.979,0.886 -1.979,1.979c0,1.748 0,4.021 0,4.021"
   style="fill:none;stroke:#222a33;stroke-width:2px;"
   id="path7" />

  <path
   d="M35,31c0,-0.796 -0.316,-1.559 -0.879,-2.121c-0.562,-0.563 -1.325,-0.879 -2.121,-0.879c-0.001,0 -0.001,0 -0.002,0c-0.795,0 -1.558,0.316 -2.12,0.878c-0.562,0.562 -0.878,1.325 -0.878,2.12l0,3.002c0,0.796 0.316,1.559 0.879,2.121c0.562,0.563 1.325,0.879 2.121,0.879c0.796,0 1.559,-0.316 2.121,-0.879c0.563,-0.562 0.879,-1.325 0.879,-2.121c0,-0.965 0,-2.035 0,-3Z"
   style="fill:none;stroke:#222a33;stroke-width:2px;"
   id="path9" />

  <path
   d="M18,47l-2.596,0c-0.638,0 -1.249,-0.253 -1.7,-0.704c-0.451,-0.451 -0.704,-1.062 -0.704,-1.7l0,-2.596"
   style="fill:none;stroke:#222a33;stroke-width:2px;"
   id="path11" />

</svg>
